<?xml version="1.0" encoding="UTF-8"?>
<svg version="1.1" xmlns="http://www.w3.org/2000/svg" width="64" height="64">
<path d="M0 0 C1.546875 0.8353125 1.546875 0.8353125 3.125 1.6875 C9.38682139 6.72418242 11.46438096 12.83085203 13.3125 20.46484375 C13.95723472 23.18548879 13.95723472 23.18548879 15.625 26.1875 C17.66325746 30.35666299 18.65784104 34.41417869 17.4921875 38.99609375 C16.13372594 42.43514644 15.11525291 43.92316473 12 46 C11.01 46 10.02 46 9 46 C8.67 46.99 8.34 47.98 8 49 C1.30911395 52.03903796 -6.14315255 52.28071328 -13.375 52.3125 C-14.13546631 52.31789795 -14.89593262 52.3232959 -15.67944336 52.32885742 C-25.79918419 52.20081581 -25.79918419 52.20081581 -29 49 C-30.78905276 48.73193346 -32.58135493 48.48538649 -34.375 48.25 C-39.70446516 47.30422704 -39.70446516 47.30422704 -42.125 44.8125 C-44.24840038 37.98728449 -44.25080428 34.2515467 -41 28 C-40.67 27.67 -40.34 27.34 -40 27 C-39.83952799 25.16943046 -39.72231121 23.33501135 -39.625 21.5 C-38.51488891 8.31938517 -38.51488891 8.31938517 -33.7890625 3.9609375 C-23.80995315 -3.32111527 -11.25936864 -6.43392493 0 0 Z M-27 3 C-27.29619523 6.03677757 -27.29619523 6.03677757 -25.4375 8.125 C-23.04032868 10.28679168 -23.04032868 10.28679168 -19.5 10.5 C-15.54565851 11.06490593 -14.45430182 11.95666574 -12 15 C-11.62230469 14.34515625 -11.24460937 13.6903125 -10.85546875 13.015625 C-9 11 -9 11 -6.30078125 10.609375 C-4.82158203 10.67898437 -4.82158203 10.67898437 -3.3125 10.75 C-2.31863281 10.78609375 -1.32476562 10.8221875 -0.30078125 10.859375 C0.83810547 10.92898437 0.83810547 10.92898437 2 11 C4.01925846 15.46240705 3.94669302 18.17186559 3 23 C6.96 21.515 6.96 21.515 11 20 C8.72267923 11.33662587 5.42798405 6.10429132 -2 1 C-10.42453888 -3.30189219 -19.06791562 -1.2917558 -27 3 Z M-34 11 C-37.46414059 17.66643741 -37.46414059 17.66643741 -38 25 C-33.80248509 24.53849156 -33.80248509 24.53849156 -30 23 C-27.77067916 19.22395168 -27 15.34900099 -27 11 C-29.31 11 -31.62 11 -34 11 Z " fill="#50472F" transform="translate(45,7)"/>
<path d="M0 0 C1.546875 0.8353125 1.546875 0.8353125 3.125 1.6875 C8.28719765 5.83970245 11.06192976 10.3803875 11.8125 17 C11.89576237 18.33219796 11.96602312 19.66563513 12 21 C9.74617875 18.74617875 9.35587333 17.30553872 8.375 14.3125 C5.77921424 7.61963448 1.48385838 3.74192919 -4.875 0.5625 C-13.31076357 -0.95593744 -19.44362379 -0.08847408 -27 4 C-26.505 4.78375 -26.01 5.5675 -25.5 6.375 C-24 9 -24 9 -24 11 C-22.02 11 -20.04 11 -18 11 C-17.01 13.31 -16.02 15.62 -15 18 C-12.09197539 15.78071806 -10.04687238 14.07030857 -8 11 C-6.0546875 10.70703125 -6.0546875 10.70703125 -3.875 10.8125 C-2.59625 10.874375 -1.3175 10.93625 0 11 C-0.47549934 13.62571335 -0.95522567 16.2505304 -1.4375 18.875 C-1.57220703 19.62136719 -1.70691406 20.36773438 -1.84570312 21.13671875 C-2.88671875 26.7734375 -2.88671875 26.7734375 -4 29 C-6.31 29 -8.62 29 -11 29 C-11 27.02 -11 25.04 -11 23 C-11.86625 23.99 -11.86625 23.99 -12.75 25 C-15 27 -15 27 -19 27 C-19.33 25.02 -19.66 23.04 -20 21 C-20.66 21 -21.32 21 -22 21 C-22.33 23.64 -22.66 26.28 -23 29 C-25.64 29 -28.28 29 -31 29 C-31.33 29.66 -31.66 30.32 -32 31 C-34.33333333 31.66666667 -36.66666667 32.33333333 -39 33 C-39.33 33.66 -39.66 34.32 -40 35 C-40.66 35 -41.32 35 -42 35 C-41.125 28.125 -41.125 28.125 -40 27 C-39.83952799 25.16943046 -39.72231121 23.33501135 -39.625 21.5 C-38.51488891 8.31938517 -38.51488891 8.31938517 -33.7890625 3.9609375 C-23.80995315 -3.32111527 -11.25936864 -6.43392493 0 0 Z M-34 11 C-37.46414059 17.66643741 -37.46414059 17.66643741 -38 25 C-33.80248509 24.53849156 -33.80248509 24.53849156 -30 23 C-27.77067916 19.22395168 -27 15.34900099 -27 11 C-29.31 11 -31.62 11 -34 11 Z " fill="#B0CA60" transform="translate(45,7)"/>
<path d="M0 0 C0.33 0 0.66 0 1 0 C1 2.64 1 5.28 1 8 C3.94386623 9.47193312 6.37390036 8.84936173 9.625 8.5625 C10.81351563 8.46066406 12.00203125 8.35882813 13.2265625 8.25390625 C14.14179688 8.17011719 15.05703125 8.08632813 16 8 C16 7.34 16 6.68 16 6 C15.34 5.34 14.68 4.68 14 4 C17.3 4 20.6 4 24 4 C23.01 7.3 22.02 10.6 21 14 C22.5675 13.87625 24.135 13.7525 25.75 13.625 C26.63171875 13.55539063 27.5134375 13.48578125 28.421875 13.4140625 C30.99066382 13.00149945 32.75841015 12.28839043 35 11 C34.34 10.34 33.68 9.68 33 9 C34 8 34 8 37.0546875 7.97265625 C39.59641972 8.03243114 42.13808959 8.09492016 44.6796875 8.16015625 C48.13924753 8.27836775 48.13924753 8.27836775 51 6 C51.72382467 3.94074861 51.72382467 3.94074861 52 2 C53.32 2.33 54.64 2.66 56 3 C53.375 9.75 53.375 9.75 50 12 C49.01 12 48.02 12 47 12 C46.67 12.99 46.34 13.98 46 15 C39.30911395 18.03903796 31.85684745 18.28071328 24.625 18.3125 C23.86453369 18.31789795 23.10406738 18.3232959 22.32055664 18.32885742 C12.20081581 18.20081581 12.20081581 18.20081581 9 15 C7.21094724 14.73193346 5.41864507 14.48538649 3.625 14.25 C-1.69750174 13.31114107 -1.69750174 13.31114107 -4.1875 10.75 C-5.09014287 7.69490104 -5.22112439 5.16944952 -5 2 C-3.35 2 -1.7 2 0 2 C0 1.34 0 0.68 0 0 Z " fill="#ADC85C" transform="translate(7,41)"/>
<path d="M0 0 C0.66 0 1.32 0 2 0 C2.33 1.98 2.66 3.96 3 6 C6.64991166 4.68197635 8.7895201 3.40785992 12 1 C11.67 4.3 11.34 7.6 11 11 C9.02 11 7.04 11 5 11 C4.34 12.65 3.68 14.3 3 16 C1.35 16 -0.3 16 -2 16 C-2 16.66 -2 17.32 -2 18 C-1.01 18.33 -0.02 18.66 1 19 C0.67 19.99 0.34 20.98 0 22 C-2.0809844 22.24959784 -4.16500812 22.47394907 -6.25 22.6875 C-7.41015625 22.81511719 -8.5703125 22.94273438 -9.765625 23.07421875 C-13.32466794 22.99254989 -14.48177725 22.42472438 -17 20 C-16.34 20 -15.68 20 -15 20 C-15.33 18.35 -15.66 16.7 -16 15 C-17.98 15.33 -19.96 15.66 -22 16 C-21.34 13.69 -20.68 11.38 -20 9 C-19.67 9.66 -19.34 10.32 -19 11 C-19.33 11.99 -19.66 12.98 -20 14 C-19.34 14 -18.68 14 -18 14 C-17.67 13.01 -17.34 12.02 -17 11 C-13.535 10.505 -13.535 10.505 -10 10 C-9.67 9.01 -9.34 8.02 -9 7 C-6.36 7.33 -3.72 7.66 -1 8 C-0.67 5.36 -0.34 2.72 0 0 Z " fill="#58492B" transform="translate(23,28)"/>
<path d="M0 0 C1.546875 0.8353125 1.546875 0.8353125 3.125 1.6875 C8.28719765 5.83970245 11.06192976 10.3803875 11.8125 17 C11.89576237 18.33219796 11.96602312 19.66563513 12 21 C9.74617875 18.74617875 9.35587333 17.30553872 8.375 14.3125 C5.77921424 7.61963448 1.48385838 3.74192919 -4.875 0.5625 C-13.31076357 -0.95593744 -19.44362379 -0.08847408 -27 4 C-26.1646875 4.9590625 -26.1646875 4.9590625 -25.3125 5.9375 C-23.32215877 10.58162953 -25.23610738 13.4804679 -27 18 C-27.5794073 19.84895307 -28.14233977 21.70316125 -28.6875 23.5625 C-28.93886719 24.40941406 -29.19023437 25.25632812 -29.44921875 26.12890625 C-29.63097656 26.74636719 -29.81273437 27.36382812 -30 28 C-30.66 28 -31.32 28 -32 28 C-32 28.99 -32 29.98 -32 31 C-33.134375 31.28875 -34.26875 31.5775 -35.4375 31.875 C-36.613125 32.24625 -37.78875 32.6175 -39 33 C-39.33 33.66 -39.66 34.32 -40 35 C-40.66 35 -41.32 35 -42 35 C-41.125 28.125 -41.125 28.125 -40 27 C-39.83952799 25.16943046 -39.72231121 23.33501135 -39.625 21.5 C-38.51488891 8.31938517 -38.51488891 8.31938517 -33.7890625 3.9609375 C-23.80995315 -3.32111527 -11.25936864 -6.43392493 0 0 Z M-34 11 C-37.46414059 17.66643741 -37.46414059 17.66643741 -38 25 C-33.80248509 24.53849156 -33.80248509 24.53849156 -30 23 C-27.77067916 19.22395168 -27 15.34900099 -27 11 C-29.31 11 -31.62 11 -34 11 Z " fill="#3D3726" transform="translate(45,7)"/>
<path d="M0 0 C1 3 1 3 -0.2578125 5.6640625 C-0.87398437 6.64117187 -1.49015625 7.61828125 -2.125 8.625 C-2.72570312 9.60726562 -3.32640625 10.58953125 -3.9453125 11.6015625 C-6 14 -6 14 -8.7421875 14.8359375 C-9.48726562 14.89007813 -10.23234375 14.94421875 -11 15 C-11 16.65 -11 18.3 -11 20 C-10.01 19.34 -9.02 18.68 -8 18 C-7.01 18.33 -6.02 18.66 -5 19 C-7.89217759 23.69978858 -7.89217759 23.69978858 -11.046875 24.5546875 C-13.02330745 24.78597215 -15.01256369 24.90062818 -17 25 C-16.34 22.03 -15.68 19.06 -15 16 C-17.97 15.67 -20.94 15.34 -24 15 C-24 14.67 -24 14.34 -24 14 C-22.35 14 -20.7 14 -19 14 C-18.67 12.02 -18.34 10.04 -18 8 C-15.69 8.33 -13.38 8.66 -11 9 C-11 8.01 -11 7.02 -11 6 C-8 5 -8 5 -5.5 5.25 C-4.675 5.1675 -3.85 5.085 -3 5 C-1.1375562 2.59141286 -1.1375562 2.59141286 0 0 Z " fill="#827041" transform="translate(45,30)"/>
<path d="M0 0 C1.010625 0.5775 2.02125 1.155 3.0625 1.75 C4.609375 2.5853125 4.609375 2.5853125 6.1875 3.4375 C11.34969765 7.58970245 14.12442976 12.1303875 14.875 18.75 C14.95826237 20.08219796 15.02852312 21.41563513 15.0625 22.75 C12.80867875 20.49617875 12.41837333 19.05553872 11.4375 16.0625 C8.84171424 9.36963448 4.54635838 5.49192919 -1.8125 2.3125 C-9.40428574 0.94597857 -15.09189545 1.22574806 -21.9296875 4.97265625 C-24.3544855 5.91143991 -25.52870667 5.60874022 -27.9375 4.75 C-20.50304825 -1.80981036 -9.38942681 -3.83541319 0 0 Z " fill="#97D3C8" transform="translate(41.9375,5.25)"/>
<path d="M0 0 C2.86843957 1.7529353 3.79847556 3.26947389 4.6875 6.4921875 C5.19679209 8.98913345 5.63426511 11.47835417 6 14 C4.68 14 3.36 14 2 14 C2 11.69 2 9.38 2 7 C-1.96 7 -5.92 7 -10 7 C-9.67 5.35 -9.34 3.7 -9 2 C-5.50875983 -0.32749345 -4.10777749 -0.50299316 0 0 Z " fill="#587542" transform="translate(57,29)"/>
<path d="M0 0 C1.79158489 -0.02696365 3.58328473 -0.04637917 5.375 -0.0625 C6.37273438 -0.07410156 7.37046875 -0.08570313 8.3984375 -0.09765625 C11 0 11 0 13 1 C13 2.98 13 4.96 13 7 C12.34 7 11.68 7 11 7 C10.34 8.32 9.68 9.64 9 11 C9 8.03 9 5.06 9 2 C8.34 2 7.68 2 7 2 C7 5.3 7 8.6 7 12 C6.67 11.34 6.34 10.68 6 10 C5.34 10 4.68 10 4 10 C4 9.34 4 8.68 4 8 C1.13275314 8.57344937 0.1385485 8.8614515 -2 11 C-2 9.35 -2 7.7 -2 6 C3.75 5.875 3.75 5.875 6 7 C4.36526484 3.87525373 4.36526484 3.87525373 1.875 3.3125 C1.25625 3.209375 0.6375 3.10625 0 3 C0 2.01 0 1.02 0 0 Z " fill="#675F59" transform="translate(45,37)"/>
<path d="M0 0 C1.98 0 3.96 0 6 0 C6 3.96 6 7.92 6 12 C4.02 12 2.04 12 0 12 C-0.76173392 7.6835078 -1.16063604 4.25566547 0 0 Z " fill="#7E603A" transform="translate(10,39)"/>
<path d="M0 0 C0.99 0.495 0.99 0.495 2 1 C2 1.66 2 2.32 2 3 C3.60875 2.87625 3.60875 2.87625 5.25 2.75 C9 3 9 3 11.4375 5 C12.2109375 5.99 12.2109375 5.99 13 7 C13.37769531 6.34515625 13.75539063 5.6903125 14.14453125 5.015625 C16 3 16 3 18.69921875 2.609375 C20.17841797 2.67898437 20.17841797 2.67898437 21.6875 2.75 C22.68136719 2.78609375 23.67523438 2.8221875 24.69921875 2.859375 C25.83810547 2.92898437 25.83810547 2.92898437 27 3 C27 3.99 27 4.98 27 6 C26.34 5.67 25.68 5.34 25 5 C20.93485195 4.44238463 20.93485195 4.44238463 17 5 C14.56445338 7.04667783 12.7719121 9.36897901 11 12 C8.20766929 9.44722581 7.51032394 7.77639718 7 4 C5.02 4 3.04 4 1 4 C0.67 2.68 0.34 1.36 0 0 Z " fill="#434123" transform="translate(20,14)"/>
<path d="M0 0 C0.66 0 1.32 0 2 0 C2 1.65 2 3.3 2 5 C2.99 4.34 3.98 3.68 5 3 C5.99 3.33 6.98 3.66 8 4 C5.10782241 8.69978858 5.10782241 8.69978858 1.953125 9.5546875 C-0.02330745 9.78597215 -2.01256369 9.90062818 -4 10 C-3.67 8.02 -3.34 6.04 -3 4 C-2.34 4 -1.68 4 -1 4 C-0.67 2.68 -0.34 1.36 0 0 Z " fill="#87876F" transform="translate(32,45)"/>
<path d="M0 0 C0.66 0 1.32 0 2 0 C2.96070434 2.88211302 3.10581883 4.69850044 3.0625 7.6875 C3.05347656 8.49574219 3.04445313 9.30398437 3.03515625 10.13671875 C3.02355469 10.75160156 3.01195312 11.36648437 3 12 C2.01 12 1.02 12 0 12 C0.33 12.99 0.66 13.98 1 15 C0.01 15 -0.98 15 -2 15 C-2 13.68 -2 12.36 -2 11 C-4.97 10.505 -4.97 10.505 -8 10 C-5 8 -5 8 -1 8 C-0.67 5.36 -0.34 2.72 0 0 Z " fill="#724F33" transform="translate(23,28)"/>
<path d="M0 0 C3.4375 0.8125 3.4375 0.8125 7 2 C7.33 2.99 7.66 3.98 8 5 C5.36 4.67 2.72 4.34 0 4 C0.33 4.99 0.66 5.98 1 7 C2.65 6.67 4.3 6.34 6 6 C6.33 7.32 6.66 8.64 7 10 C4.36 10 1.72 10 -1 10 C-1 9.01 -1 8.02 -1 7 C-1.66 7 -2.32 7 -3 7 C-3 6.34 -3 5.68 -3 5 C-2.34 5 -1.68 5 -1 5 C-0.67 3.35 -0.34 1.7 0 0 Z " fill="#554F3D" transform="translate(43,39)"/>
<path d="M0 0 C0.33 1.32 0.66 2.64 1 4 C0.34 4 -0.32 4 -1 4 C-1 4.99 -1 5.98 -1 7 C-2.134375 7.28875 -3.26875 7.5775 -4.4375 7.875 C-5.613125 8.24625 -6.78875 8.6175 -8 9 C-8.33 9.66 -8.66 10.32 -9 11 C-9.66 11 -10.32 11 -11 11 C-10.72943538 6.40040149 -8.74396837 4.275978 -5.66796875 1.13671875 C-4 0 -4 0 0 0 Z " fill="#7FA55C" transform="translate(14,31)"/>
<path d="M0 0 C0.33 0 0.66 0 1 0 C0.979375 1.2375 0.95875 2.475 0.9375 3.75 C0.9375 7.5706625 1.2785525 10.557105 3 14 C-2.5703125 12.546875 -2.5703125 12.546875 -4.375 10.25 C-5.15681638 7.43546104 -5.13210983 4.90641633 -5 2 C-3.35 2 -1.7 2 0 2 C0 1.34 0 0.68 0 0 Z " fill="#B0CC5A" transform="translate(7,41)"/>
<path d="M0 0 C2.64 0.33 5.28 0.66 8 1 C7.79375 1.61875 7.5875 2.2375 7.375 2.875 C7.25125 3.57625 7.1275 4.2775 7 5 C7.66 5.66 8.32 6.32 9 7 C5.04476345 9.75668002 1.77576339 10.5317879 -3 11 C-1 9 -1 9 1.5625 7.5 C4.10406871 6.23133163 4.10406871 6.23133163 5 4 C3.35 4.33 1.7 4.66 0 5 C0 3.35 0 1.7 0 0 Z " fill="#727E42" transform="translate(34,45)"/>
<path d="M0 0 C0.66 0 1.32 0 2 0 C2.33 2.31 2.66 4.62 3 7 C3.33 6.34 3.66 5.68 4 5 C4.66 5 5.32 5 6 5 C6 6.32 6 7.64 6 9 C2.91111478 11.05925681 2.29064073 11.2390374 -1.1875 11.125 C-3.0746875 11.063125 -3.0746875 11.063125 -5 11 C-4.01 10.67 -3.02 10.34 -2 10 C-1.34 6.7 -0.68 3.4 0 0 Z " fill="#5C5647" transform="translate(52,39)"/>
<path d="M0 0 C2.31 0 4.62 0 7 0 C7 3.3 7 6.6 7 10 C6.67 9.34 6.34 8.68 6 8 C5.34 8 4.68 8 4 8 C4 7.34 4 6.68 4 6 C1.13275314 6.57344937 0.1385485 6.8614515 -2 9 C-2 7.35 -2 5.7 -2 4 C3.75 3.875 3.75 3.875 6 5 C3.9927092 1.9890638 3.16115776 1.36983503 0 0 Z " fill="#948E86" transform="translate(45,39)"/>
<path d="M0 0 C0.66 0.226875 1.32 0.45375 2 0.6875 C2.99 1.0175 3.98 1.3475 5 1.6875 C5.33 2.6775 5.66 3.6675 6 4.6875 C2.04 4.6875 -1.92 4.6875 -6 4.6875 C-4.8939977 1.36949311 -3.81739079 -0.59646731 0 0 Z " fill="#EAE7DC" transform="translate(15,12.3125)"/>
<path d="M0 0 C0.66 0.33 1.32 0.66 2 1 C1.67 3.64 1.34 6.28 1 9 C1.99 8.34 2.98 7.68 4 7 C7.1875 7.375 7.1875 7.375 10 8 C9.67 8.66 9.34 9.32 9 10 C7.63875 9.938125 7.63875 9.938125 6.25 9.875 C3.1217954 9.99531556 1.61385994 10.3914708 -1 12 C-1.99 9.69 -2.98 7.38 -4 5 C-3.34 4.67 -2.68 4.34 -2 4 C-1.67 4.66 -1.34 5.32 -1 6 C-0.67 4.02 -0.34 2.04 0 0 Z " fill="#3B3E1F" transform="translate(48,20)"/>
<path d="M0 0 C0.66 0 1.32 0 2 0 C2.33 1.65 2.66 3.3 3 5 C3.99 5.33 4.98 5.66 6 6 C5.67 6.99 5.34 7.98 5 9 C2.03 8.505 2.03 8.505 -1 8 C-1.04241723 5.66705225 -1.04092937 3.33297433 -1 1 C-0.67 0.67 -0.34 0.34 0 0 Z " fill="#877940" transform="translate(18,41)"/>
<path d="M0 0 C2.97 0 5.94 0 9 0 C9.33 0.66 9.66 1.32 10 2 C8.68 2 7.36 2 6 2 C5.67 3.65 5.34 5.3 5 7 C4.67 6.01 4.34 5.02 4 4 C1.03 3.67 -1.94 3.34 -5 3 C-5 2.67 -5 2.34 -5 2 C-3.35 2 -1.7 2 0 2 C0 1.34 0 0.68 0 0 Z " fill="#759044" transform="translate(26,42)"/>
<path d="M0 0 C0 0.99 0 1.98 0 3 C-4.95 4.485 -4.95 4.485 -10 6 C-8.44756363 -0.20974547 -5.83934857 -0.2595266 0 0 Z " fill="#7DA35B" transform="translate(57,29)"/>
<path d="M0 0 C1.53445094 3.06890187 0.54984289 5.70094266 0 9 C-2.375 9.1875 -2.375 9.1875 -5 9 C-5.66 8.01 -6.32 7.02 -7 6 C-6.01 5.34 -5.02 4.68 -4 4 C-2.64748503 2.68612831 -1.31054623 1.35573748 0 0 Z " fill="#5F572F" transform="translate(34,29)"/>
<path d="M0 0 C0.99 0.33 1.98 0.66 3 1 C2.525625 2.19625 2.05125 3.3925 1.5625 4.625 C0.26517227 8.06414238 -0.54236951 11.33895604 -1 15 C-1.33 15 -1.66 15 -2 15 C-2.05429959 13.25034642 -2.09292823 11.50020213 -2.125 9.75 C-2.15980469 8.28820312 -2.15980469 8.28820312 -2.1953125 6.796875 C-1.99862781 3.9803502 -1.44568916 2.39050964 0 0 Z " fill="#8FCDC3" transform="translate(8,18)"/>
<path d="M0 0 C0 0.66 0 1.32 0 2 C-1.7015625 2.433125 -1.7015625 2.433125 -3.4375 2.875 C-4.613125 3.24625 -5.78875 3.6175 -7 4 C-7.33 4.66 -7.66 5.32 -8 6 C-8.66 6 -9.32 6 -10 6 C-9.67 4.35 -9.34 2.7 -9 1 C-3.375 -1.125 -3.375 -1.125 0 0 Z " fill="#668D4F" transform="translate(13,36)"/>
<path d="M0 0 C1.98 0.495 1.98 0.495 4 1 C4 2.98 4 4.96 4 7 C3.01 7.495 3.01 7.495 2 8 C1.67 7.34 1.34 6.68 1 6 C0.01 6.495 0.01 6.495 -1 7 C-0.67 4.69 -0.34 2.38 0 0 Z " fill="#657B38" transform="translate(44,19)"/>
<path d="M0 0 C0.66 0 1.32 0 2 0 C2.625 2.875 2.625 2.875 3 6 C2.34 6.66 1.68 7.32 1 8 C0.01 8 -0.98 8 -2 8 C-1.125 2.25 -1.125 2.25 0 0 Z " fill="#97948B" transform="translate(32,45)"/>
<path d="M0 0 C1.32 0.33 2.64 0.66 4 1 C3.375 3.4375 3.375 3.4375 2 6 C-1.125 6.8125 -1.125 6.8125 -4 7 C-3.525625 6.5875 -3.05125 6.175 -2.5625 5.75 C-0.83733482 3.817815 -0.43415125 2.51807725 0 0 Z " fill="#88A649" transform="translate(59,43)"/>
<path d="M0 0 C0.66 0 1.32 0 2 0 C2.66 0.99 3.32 1.98 4 3 C3.67 3.99 3.34 4.98 3 6 C2.67 5.67 2.34 5.34 2 5 C0.515 7.475 0.515 7.475 -1 10 C-2.27351308 7.45297384 -1.80191925 6.5717055 -1.0625 3.875 C-0.86785156 3.15054687 -0.67320313 2.42609375 -0.47265625 1.6796875 C-0.31667969 1.12539063 -0.16070312 0.57109375 0 0 Z " fill="#685231" transform="translate(43,26)"/>
<path d="M0 0 C1.32 0 2.64 0 4 0 C4.33 1.32 4.66 2.64 5 4 C2.36 4 -0.28 4 -3 4 C-2.34 3.67 -1.68 3.34 -1 3 C-0.67 2.01 -0.34 1.02 0 0 Z " fill="#433929" transform="translate(45,45)"/>
<path d="M0 0 C3 4.22222222 3 4.22222222 3 7 C2.01 7 1.02 7 0 7 C0 5.68 0 4.36 0 3 C-2.97 2.505 -2.97 2.505 -6 2 C-3 0 -3 0 0 0 Z " fill="#957245" transform="translate(21,36)"/>
<path d="M0 0 C0.99 0 1.98 0 3 0 C4.80230168 3.82989106 5.19622241 6.78121808 5 11 C2.77174356 8.77174356 2.30760631 7.34238372 1.375 4.375 C1.11460938 3.55773437 0.85421875 2.74046875 0.5859375 1.8984375 C0.39257812 1.27195312 0.19921875 0.64546875 0 0 Z " fill="#A9D5C1" transform="translate(52,17)"/>
<path d="M0 0 C0.66 0.33 1.32 0.66 2 1 C2 3.64 2 6.28 2 9 C1.01 8.67 0.02 8.34 -1 8 C-1.04241723 5.66705225 -1.04092937 3.33297433 -1 1 C-0.67 0.67 -0.34 0.34 0 0 Z " fill="#A98451" transform="translate(10,41)"/>
<path d="M0 0 C0.66 0 1.32 0 2 0 C2.33 1.98 2.66 3.96 3 6 C2.01 6 1.02 6 0 6 C-0.33 6.66 -0.66 7.32 -1 8 C-0.67 5.36 -0.34 2.72 0 0 Z " fill="#57592D" transform="translate(23,28)"/>
<path d="M0 0 C1.32 0 2.64 0 4 0 C4 0.66 4 1.32 4 2 C4.66 2.33 5.32 2.66 6 3 C4.02 3.66 2.04 4.32 0 5 C0 3.35 0 1.7 0 0 Z " fill="#706A5F" transform="translate(34,45)"/>
<path d="M0 0 C0.33 0 0.66 0 1 0 C1 2.31 1 4.62 1 7 C0.01 7 -0.98 7 -2 7 C-2 5.35 -2 3.7 -2 2 C-1.34 2 -0.68 2 0 2 C0 1.34 0 0.68 0 0 Z " fill="#A08A4E" transform="translate(7,41)"/>
<path d="M0 0 C0.99 0 1.98 0 3 0 C6 3.33333333 6 3.33333333 6 6 C3.37812506 4.95125002 2.20628639 4.35068687 0.75 1.875 C0.5025 1.25625 0.255 0.6375 0 0 Z " fill="#85BCAF" transform="translate(48,11)"/>
</svg>
